# xmcd
#
# Track frame offsets:
#	150
#	14376
#	31889
#	48069
#	62858
#	74037
#	90951
#	104042
#	122223
#	136555
#	155916
#	170772
#	184329
#	201130
#	217035
#	233488
#	250458
#	265609
#	279970
#
# Disc length: 3941 seconds
#
# Revision: 0
# Processed by: cddbd v1.5.2PL0 Copyright (c) Steve Scherf et al.
# Submitted via: audiograbber 1.83.01
#
DISCID=150f6313
DTITLE=Various Artist - Hott Country 350
DYEAR=2010
DGENRE=Country
TTITLE0=Reba McEntire - Keep On Loving You
TTITLE1=Jaydee Bixby - Boy Inside The Man
TTITLE2=Deric Ruttan - Up All Night
TTITLE3=Coldwater Jane - Bring On The Love
TTITLE4=Gord Bamford - Day Job
TTITLE5=Miranda Lambert - The House That Built Me ( Radio Edit )
TTITLE6=Doc Walker - I'm Gonna Make You Love Me
TTITLE7=Aaron Pritchet - Nothing But Us
TTITLE8=Marshall Dane - Love And Alcohol
TTITLE9=David Nail - Turning Home
TTITLE10=Megan Mullins - Tradin' In My Halo For Horns
TTITLE11=Court Yard Hounds - The Coast
TTITLE12=Emily West Feat Keith Urban - Blue Sky
TTITLE13=Jimmy Wayne Feat W Duncan - Just Knowing You Love Me
TTITLE14=Shane Yellowbird - Watching you Walk Away
TTITLE15=Mist Lee Olson - Story Of A Girl
TTITLE16=Eeric Church - Lotta Boot Left To Fill
TTITLE17=Millary Hope - Blossom In The Dust
TTITLE18=Ricky Skaggs - Honey ( Open That Door ) ( 1983 )
EXTD=March 2010
EXTT0=
EXTT1=
EXTT2=
EXTT3=
EXTT4=
EXTT5=
EXTT6=
EXTT7=
EXTT8=
EXTT9=
EXTT10=
EXTT11=
EXTT12=
EXTT13=
EXTT14=
EXTT15=
EXTT16=
EXTT17=
EXTT18=
PLAYORDER=
